#N canvas 23 23 774 624 10;
#X text 24 39 UDP listener on port 6677;
#X obj 60 73 dumpOSC 6677;
#X obj 60 130 OSCroute /playNote;
#X obj 440 238 sendOSC;
#X floatatom 427 296 5 0 0 0 - - -;
#X msg 470 94 disconnect;
#X floatatom 500 281 5 0 0 0 - - -;
#X msg 398 58 connect localhost 6677;
#X obj 62 179 unpack f;
#X floatatom 266 243 5 0 0 0 - - -;
#X obj 268 9 pddp/dsp;
#X text 402 17;
#X obj 131 322 mtof;
#X msg 336 372 0;
#X obj 197 405 osc~;
#X obj 265 562 dac~;
#X obj 272 490 *~;
#X msg 336 424 1;
#X text 369 421 on;
#X text 365 372 off;
#X text 12 286 midi note number;
#X text 35 371 frequency;
#X text 128 243 midi note number note;
#X msg 593 122 send /playNote 60;
#X msg 598 170 send /playNote 80;
#X floatatom 98 371 5 0 0 0 - - -;
#X connect 1 0 2 0;
#X connect 2 0 8 0;
#X connect 3 0 4 0;
#X connect 3 1 6 0;
#X connect 5 0 3 0;
#X connect 7 0 3 0;
#X connect 8 0 9 0;
#X connect 8 0 12 0;
#X connect 12 0 14 0;
#X connect 12 0 25 0;
#X connect 13 0 16 1;
#X connect 14 0 16 0;
#X connect 16 0 15 0;
#X connect 16 0 15 1;
#X connect 17 0 16 1;
#X connect 23 0 3 0;
#X connect 24 0 3 0;
